<svg xmlns="http://www.w3.org/2000/svg" viewBox="0 0 160 160" role="img" aria-label="Lebanese cedar">
  <rect width="160" height="160" fill="none"/>
  <path fill="#050505" d="M80 6
    C75 19 70 30 58 38
    C68 38 75 36 80 31
    C85 36 92 38 102 38
    C90 30 85 19 80 6Z"/>
  <path fill="#050505" d="M80 24
    C63 42 45 50 22 53
    C41 60 59 58 72 49
    C66 60 54 69 36 75
    C55 78 70 74 80 64
    C90 74 105 78 124 75
    C106 69 94 60 88 49
    C101 58 119 60 138 53
    C115 50 97 42 80 24Z"/>
  <path fill="#050505" d="M80 55
    C57 75 34 86 7 91
    C31 101 56 98 73 86
    C64 99 48 111 24 119
    C50 123 70 118 80 104
    C90 118 110 123 136 119
    C112 111 96 99 87 86
    C104 98 129 101 153 91
    C126 86 103 75 80 55Z"/>
  <path fill="#050505" d="M73 95H87L92 153H68L73 95Z"/>
  <path fill="#050505" d="M55 145H105L116 158H44L55 145Z"/>
</svg>
